# xmcd
#
# Track frame offsets:
#	150
#	13015
#	24530
#	37155
#	48665
#	62550
#	72405
#	82610
#	94750
#	106605
#	118825
#	131525
#	143020
#	153210
#	165750
#	177160
#	188535
#	200290
#	214055
#	225590
#	237945
#	248340
#	259620
#	273415
#	281490
#	295385
#	305920
#	316660
#	326685
#	338235
#
# Disc length: 4639 seconds
#
# Revision: 0
# Processed by: cddbd v1.5.2PL0 Copyright (c) Steve Scherf et al.
# Submitted via: audiograbber 1.83.01
#
DISCID=99121d1e
DTITLE=Various Artist - Wrinkle City Relics Volume 3
DYEAR=1900
DGENRE=
TTITLE0=Fred Norman - The Letter
TTITLE1=Columbus Pulsations - Linda
TTITLE2=Corsairs - Rock Lilly Rock
TTITLE3=Dee Impulse - Till I Come Home
TTITLE4=Donoman - You've Been Gone Too Long
TTITLE5=Columbus Plusations - The Girl Of My Dreams
TTITLE6=Aki Aleong - How Do I Stand With You
TTITLE7=Ambassadors - Keep On Trying
TTITLE8=Nu Tones - Niki Niki Mambo
TTITLE9=Barbees - The Wind
TTITLE10=Fred Bridges - It Must Be Love
TTITLE11=Bo Freeman - The Girl For Me
TTITLE12=Grand Prixs - Late Summer Love
TTITLE13=Yvonne And Violets - Show Me The Way
TTITLE14=Bobby Foster - Angel Of Love
TTITLE15=Du Droppers - Story Untold
TTITLE16=Kenneth Churchill and Lyrics - Would You Rather
TTITLE17=LC Steels - I Will Always Love You
TTITLE18=Goodfellows - Another Chance
TTITLE19=June August - What Is My Birthday
TTITLE20=Legends - Well Darling
TTITLE21=Sammy Vaughan and Starmarks - Always Be Mine
TTITLE22=Little Mason - I Know That I Love You
TTITLE23=Montclairs - I've Heard About You
TTITLE24=Willfred Edwards - I Know
TTITLE25=Johnny Rebel - Write Me A Letter
TTITLE26=Tommy Winters - Now That I Found You
TTITLE27=Ray Stevens - Always On My Mind
TTITLE28=Willie C (Cobb) - Slow Down Willie
TTITLE29=Whips - Pleadin Heart
EXTD=
EXTT0=
EXTT1=
EXTT2=
EXTT3=
EXTT4=
EXTT5=
EXTT6=
EXTT7=
EXTT8=
EXTT9=
EXTT10=
EXTT11=
EXTT12=
EXTT13=
EXTT14=
EXTT15=
EXTT16=
EXTT17=
EXTT18=
EXTT19=
EXTT20=
EXTT21=
EXTT22=
EXTT23=
EXTT24=
EXTT25=
EXTT26=
EXTT27=
EXTT28=
EXTT29=
PLAYORDER=
